<svg width="71" height="18" viewBox="0 0 71 18" fill="none" xmlns="http://www.w3.org/2000/svg">
<path d="M22.6305 12.237C22.5679 12.237 22.5146 12.2151 22.4708 12.1712C22.4269 12.1274 22.405 12.0741 22.405 12.0115V5.88494C22.405 5.81603 22.4269 5.76279 22.4708 5.7252C22.5146 5.68135 22.5679 5.65942 22.6305 5.65942H23.5138C23.5827 5.65942 23.6359 5.68135 23.6735 5.7252C23.7174 5.76279 23.7393 5.81603 23.7393 5.88494V11.1094H26.718C26.7869 11.1094 26.8433 11.1313 26.8871 11.1752C26.931 11.219 26.9529 11.2723 26.9529 11.3349V12.0115C26.9529 12.0741 26.931 12.1274 26.8871 12.1712C26.8433 12.2151 26.7869 12.237 26.718 12.237H22.6305ZM29.171 12.3309C28.8515 12.3309 28.5571 12.2683 28.2877 12.143C28.0246 12.0115 27.8148 11.8361 27.6582 11.6168C27.5078 11.3976 27.4326 11.1564 27.4326 10.8933C27.4326 10.4673 27.6049 10.1228 27.9494 9.85967C28.294 9.59656 28.7669 9.41803 29.3683 9.32407L30.6556 9.13613V8.93881C30.6556 8.66944 30.5867 8.46585 30.4489 8.32803C30.3111 8.19022 30.0918 8.12131 29.7912 8.12131C29.5844 8.12131 29.4184 8.1589 29.2931 8.23407C29.1679 8.30924 29.0645 8.38755 28.9831 8.46898C28.9079 8.54415 28.8578 8.59427 28.8327 8.61933C28.8077 8.6945 28.7607 8.73208 28.6918 8.73208H27.9588C27.9025 8.73208 27.8523 8.71329 27.8085 8.67571C27.7709 8.63812 27.7521 8.588 27.7521 8.52536C27.7584 8.36875 27.8336 8.19335 27.9776 7.99916C28.128 7.7987 28.3566 7.62643 28.6636 7.48235C28.9705 7.332 29.3495 7.25683 29.8006 7.25683C30.5397 7.25683 31.0785 7.42284 31.4168 7.75485C31.755 8.08686 31.9242 8.52223 31.9242 9.06096V12.0115C31.9242 12.0741 31.9022 12.1274 31.8584 12.1712C31.8208 12.2151 31.7676 12.237 31.6987 12.237H30.9187C30.8561 12.237 30.8029 12.2151 30.759 12.1712C30.7151 12.1274 30.6932 12.0741 30.6932 12.0115V11.645C30.5554 11.8455 30.3612 12.0115 30.1106 12.143C29.8601 12.2683 29.5469 12.3309 29.171 12.3309ZM29.4905 11.4289C29.835 11.4289 30.1169 11.3161 30.3362 11.0906C30.5554 10.8651 30.665 10.5393 30.665 10.1134V9.92544L29.7254 10.0758C29.005 10.1885 28.6448 10.4297 28.6448 10.7993C28.6448 10.9998 28.7262 11.1564 28.8891 11.2691C29.0582 11.3756 29.2587 11.4289 29.4905 11.4289ZM34.9899 12.3309C34.5138 12.3309 34.1161 12.2589 33.7966 12.1148C33.4771 11.9707 33.239 11.8047 33.0824 11.6168C32.9321 11.4226 32.8569 11.2566 32.8569 11.1188C32.8569 11.0562 32.8757 11.006 32.9133 10.9685C32.9571 10.9309 33.0073 10.9121 33.0636 10.9121H33.8342C33.8843 10.9121 33.9281 10.9371 33.9657 10.9872C33.997 11.0123 34.0659 11.0718 34.1724 11.1658C34.2852 11.2597 34.4105 11.3349 34.5483 11.3913C34.6924 11.4414 34.849 11.4665 35.0181 11.4665C35.2687 11.4665 35.4723 11.4195 35.6289 11.3255C35.7855 11.2253 35.8638 11.0843 35.8638 10.9027C35.8638 10.7774 35.8262 10.6772 35.751 10.602C35.6821 10.5206 35.5537 10.4485 35.3658 10.3859C35.1841 10.317 34.9085 10.2418 34.5389 10.1604C34.0064 10.0476 33.6118 9.87533 33.3549 9.64355C33.1044 9.41177 32.9791 9.10481 32.9791 8.72269C32.9791 8.47211 33.0542 8.2372 33.2046 8.01795C33.3549 7.79243 33.5773 7.61077 33.8717 7.47295C34.1724 7.32887 34.5295 7.25683 34.9429 7.25683C35.3689 7.25683 35.7354 7.32574 36.0423 7.46356C36.3493 7.59511 36.5811 7.75485 36.7377 7.94278C36.9006 8.13071 36.982 8.29671 36.982 8.44079C36.982 8.49717 36.9601 8.54729 36.9162 8.59114C36.8786 8.62872 36.8316 8.64752 36.7753 8.64752H36.0705C36.0016 8.64752 35.9484 8.62246 35.9108 8.57234C35.8669 8.54102 35.7949 8.48464 35.6947 8.40321C35.6007 8.31551 35.4942 8.2466 35.3752 8.19648C35.2562 8.14637 35.1121 8.12131 34.9429 8.12131C34.7112 8.12131 34.5326 8.17143 34.4073 8.27166C34.2821 8.37189 34.2194 8.50344 34.2194 8.66631C34.2194 8.77907 34.2476 8.87303 34.304 8.9482C34.3666 9.02338 34.4888 9.09542 34.6704 9.16432C34.8521 9.22697 35.1246 9.29274 35.4879 9.36165C36.6155 9.5809 37.1793 10.0727 37.1793 10.8369C37.1793 11.2817 36.9851 11.6419 36.5967 11.9175C36.2146 12.1931 35.679 12.3309 34.9899 12.3309ZM38.3746 12.237C38.3119 12.237 38.2587 12.2151 38.2148 12.1712C38.171 12.1274 38.1491 12.0741 38.1491 12.0115V5.79098C38.1491 5.72207 38.171 5.66882 38.2148 5.63124C38.2587 5.58738 38.3119 5.56546 38.3746 5.56546H39.1639C39.2328 5.56546 39.286 5.58738 39.3236 5.63124C39.3675 5.66882 39.3894 5.72207 39.3894 5.79098V12.0115C39.3894 12.0741 39.3675 12.1274 39.3236 12.1712C39.286 12.2151 39.2328 12.237 39.1639 12.237H38.3746ZM42.7498 12.3309C42.0482 12.3309 41.4907 12.1305 41.0773 11.7296C40.6701 11.3287 40.4539 10.7586 40.4289 10.0194L40.4195 9.78449C40.4195 9.00145 40.6231 8.38441 41.0303 7.93338C41.4437 7.48235 42.0138 7.25683 42.7404 7.25683C43.4859 7.25683 44.0591 7.48235 44.46 7.93338C44.8672 8.38441 45.0708 8.98579 45.0708 9.73751V9.93484C45.0708 9.99748 45.0488 10.0507 45.005 10.0946C44.9611 10.1384 44.9048 10.1604 44.8359 10.1604H41.7162V10.2355C41.7287 10.5863 41.8227 10.8776 41.9981 11.1094C42.1798 11.3349 42.4272 11.4477 42.7404 11.4477C43.0975 11.4477 43.3888 11.3036 43.6143 11.0154C43.6707 10.9465 43.7145 10.9058 43.7459 10.8933C43.7772 10.8745 43.8304 10.8651 43.9056 10.8651H44.7325C44.7889 10.8651 44.8359 10.8808 44.8734 10.9121C44.9173 10.9434 44.9392 10.9872 44.9392 11.0436C44.9392 11.194 44.8484 11.3725 44.6667 11.5792C44.4913 11.7797 44.2376 11.9551 43.9056 12.1054C43.5736 12.2558 43.1883 12.3309 42.7498 12.3309ZM43.7741 9.36165V9.34286C43.7741 8.97326 43.6801 8.67884 43.4922 8.45959C43.3105 8.23407 43.0599 8.12131 42.7404 8.12131C42.421 8.12131 42.1704 8.23407 41.9887 8.45959C41.807 8.67884 41.7162 8.97326 41.7162 9.34286V9.36165H43.7741ZM47.9285 12.3309C47.4524 12.3309 47.0546 12.2589 46.7351 12.1148C46.4156 11.9707 46.1776 11.8047 46.021 11.6168C45.8706 11.4226 45.7955 11.2566 45.7955 11.1188C45.7955 11.0562 45.8143 11.006 45.8519 10.9685C45.8957 10.9309 45.9458 10.9121 46.0022 10.9121H46.7727C46.8228 10.9121 46.8667 10.9371 46.9043 10.9872C46.9356 11.0123 47.0045 11.0718 47.111 11.1658C47.2237 11.2597 47.349 11.3349 47.4868 11.3913C47.6309 11.4414 47.7875 11.4665 47.9567 11.4665C48.2072 11.4665 48.4108 11.4195 48.5674 11.3255C48.7241 11.2253 48.8024 11.0843 48.8024 10.9027C48.8024 10.7774 48.7648 10.6772 48.6896 10.602C48.6207 10.5206 48.4923 10.4485 48.3043 10.3859C48.1227 10.317 47.847 10.2418 47.4775 10.1604C46.945 10.0476 46.5503 9.87533 46.2935 9.64355C46.0429 9.41177 45.9176 9.10481 45.9176 8.72269C45.9176 8.47211 45.9928 8.2372 46.1431 8.01795C46.2935 7.79243 46.5159 7.61077 46.8103 7.47295C47.111 7.32887 47.4681 7.25683 47.8815 7.25683C48.3075 7.25683 48.6739 7.32574 48.9809 7.46356C49.2878 7.59511 49.5196 7.75485 49.6762 7.94278C49.8391 8.13071 49.9205 8.29671 49.9205 8.44079C49.9205 8.49717 49.8986 8.54729 49.8548 8.59114C49.8172 8.62872 49.7702 8.64752 49.7138 8.64752H49.0091C48.9402 8.64752 48.8869 8.62246 48.8493 8.57234C48.8055 8.54102 48.7335 8.48464 48.6332 8.40321C48.5393 8.31551 48.4328 8.2466 48.3137 8.19648C48.1947 8.14637 48.0506 8.12131 47.8815 8.12131C47.6497 8.12131 47.4712 8.17143 47.3459 8.27166C47.2206 8.37189 47.158 8.50344 47.158 8.66631C47.158 8.77907 47.1862 8.87303 47.2425 8.9482C47.3052 9.02338 47.4273 9.09542 47.609 9.16432C47.7907 9.22697 48.0632 9.29274 48.4265 9.36165C49.5541 9.5809 50.1179 10.0727 50.1179 10.8369C50.1179 11.2817 49.9237 11.6419 49.5353 11.9175C49.1532 12.1931 48.6176 12.3309 47.9285 12.3309ZM52.9763 12.237C52.8698 12.237 52.7821 12.2119 52.7132 12.1618C52.6506 12.1054 52.6067 12.0365 52.5817 11.9551L50.6836 5.94132L50.6648 5.85675C50.6648 5.80664 50.6836 5.76279 50.7212 5.7252C50.765 5.68135 50.8151 5.65942 50.8715 5.65942H52.1024C52.1964 5.65942 52.2716 5.68761 52.328 5.74399C52.3906 5.79411 52.4313 5.85049 52.4501 5.91313L53.728 10.1604L55.0154 5.91313C55.0342 5.84422 55.0717 5.78471 55.1281 5.7346C55.1908 5.68448 55.2691 5.65942 55.363 5.65942H56.594C56.6504 5.65942 56.6973 5.68135 56.7349 5.7252C56.7725 5.76279 56.7913 5.80664 56.7913 5.85675C56.7913 5.88807 56.7882 5.91626 56.7819 5.94132L54.8744 11.9551C54.8556 12.0365 54.8118 12.1054 54.7429 12.1618C54.6802 12.2119 54.5957 12.237 54.4892 12.237H52.9763ZM57.8838 12.237C57.8212 12.237 57.7648 12.2151 57.7147 12.1712C57.6708 12.1211 57.6489 12.0647 57.6489 12.0021V5.90373C57.6489 5.83483 57.6708 5.77845 57.7147 5.7346C57.7585 5.68448 57.8149 5.65942 57.8838 5.65942H60.543C61.3574 5.65942 61.9963 5.84422 62.4599 6.21382C62.9235 6.58342 63.1552 7.12528 63.1552 7.83942C63.1552 8.55355 62.9235 9.08915 62.4599 9.44622C61.9963 9.79702 61.3574 9.97242 60.543 9.97242H59.4718V12.0021C59.4718 12.0647 59.4499 12.1211 59.406 12.1712C59.3622 12.2151 59.3058 12.237 59.2369 12.237H57.8838ZM60.496 8.62872C60.7529 8.62872 60.9533 8.56295 61.0974 8.4314C61.2477 8.29358 61.3229 8.09312 61.3229 7.83002C61.3229 7.58571 61.254 7.38838 61.1162 7.23804C60.9846 7.08769 60.7779 7.01252 60.496 7.01252H59.4436V8.62872H60.496ZM64.2613 12.237C64.1987 12.237 64.1423 12.2151 64.0922 12.1712C64.0483 12.1211 64.0264 12.0647 64.0264 12.0021V5.90373C64.0264 5.83483 64.0483 5.77845 64.0922 5.7346C64.136 5.68448 64.1924 5.65942 64.2613 5.65942H65.3231C65.4672 5.65942 65.5737 5.71894 65.6426 5.83796L67.8602 9.34286V5.90373C67.8602 5.83483 67.8821 5.77845 67.926 5.7346C67.9698 5.68448 68.0262 5.65942 68.0951 5.65942H69.2884C69.3574 5.65942 69.4137 5.68448 69.4576 5.7346C69.5014 5.77845 69.5234 5.83483 69.5234 5.90373V11.9927C69.5234 12.0616 69.5014 12.1211 69.4576 12.1712C69.4137 12.2151 69.3574 12.237 69.2884 12.237H68.2266C68.0826 12.237 67.9761 12.1775 67.9072 12.0585L65.699 8.6945V12.0021C65.699 12.071 65.6739 12.1274 65.6238 12.1712C65.58 12.2151 65.5236 12.237 65.4547 12.237H64.2613Z" fill="#0B132A"/>
<path d="M15.1635 6.77544L15.1533 6.76521C15.1524 6.76464 15.1518 6.76388 15.1514 6.76299L8.75192 0.363388L2.35254 6.76283C2.3518 6.76357 2.35065 6.76505 2.35065 6.76505L2.34008 6.77528C1.36153 7.75933 0.739981 9.04224 0.574241 10.4201C0.408502 11.798 0.708085 13.1917 1.42536 14.3798C2.14265 15.5678 3.23646 16.482 4.53293 16.977C5.8294 17.472 7.25412 17.5194 8.58061 17.1116C8.69223 17.0775 8.81153 17.0775 8.92317 17.1116C10.2496 17.5192 11.6742 17.4718 12.9706 16.9768C14.267 16.4817 15.3607 15.5676 16.0779 14.3796C16.7951 13.1916 17.0948 11.798 16.9291 10.4202C16.7634 9.04241 16.1419 7.7595 15.1635 6.77544ZM4.62808 10.9955C4.59692 11.0266 4.57222 11.0636 4.55537 11.1043C4.53851 11.1449 4.52984 11.1886 4.52984 11.2326C4.54123 12.3621 4.86043 13.467 5.45309 14.4286C5.46655 14.4504 5.47277 14.4759 5.47087 14.5015C5.46896 14.527 5.45902 14.5513 5.44246 14.5709C5.42591 14.5905 5.40359 14.6043 5.3787 14.6104C5.35381 14.6165 5.32763 14.6146 5.30389 14.6049C4.85835 14.4175 4.45359 14.1451 4.11226 13.8029C3.41276 13.1033 3.01951 12.1546 3.01888 11.1653C3.01824 10.1759 3.41027 9.22675 4.10888 8.52627L8.75192 3.88366L13.3947 8.52627C14.0934 9.22667 14.4856 10.1758 14.4849 11.1653C14.4844 12.1546 14.091 13.1033 13.3915 13.8029C13.0502 14.1451 12.6454 14.4175 12.2 14.6049C12.1762 14.6146 12.15 14.6165 12.1251 14.6104C12.1002 14.6043 12.0779 14.5904 12.0613 14.5709C12.0448 14.5513 12.0348 14.527 12.0329 14.5014C12.031 14.4759 12.0372 14.4503 12.0507 14.4285C12.6434 13.467 12.9628 12.3621 12.9744 11.2326C12.9744 11.1886 12.9656 11.1449 12.9487 11.1042C12.9317 11.0635 12.907 11.0265 12.8757 10.9954L10.6796 8.66602C10.6577 8.64776 10.6302 8.63776 10.6017 8.63776C10.5733 8.63776 10.5457 8.64776 10.5239 8.66602C10.502 8.6842 10.4873 8.70957 10.4822 8.73758C10.477 8.76559 10.4819 8.79443 10.496 8.81922C11.3489 10.3627 10.6154 12.5797 9.39235 13.8029L9.3859 13.8094C9.21709 13.9764 8.98919 14.07 8.75175 14.0699C8.51428 14.0698 8.28644 13.976 8.11775 13.8089L8.11181 13.8029C6.88827 12.5797 6.15522 10.3629 7.00827 8.81955C7.0223 8.79476 7.02719 8.76592 7.02208 8.73791C7.01698 8.7099 7.00222 8.68453 6.98036 8.66635C6.9585 8.64809 6.93095 8.63809 6.90248 8.63809C6.87401 8.63809 6.84645 8.64809 6.82459 8.66635L4.62808 10.9955Z" fill="#F53838"/>
</svg>
